<svg width="0" height="0" class="hidden">
  <symbol id="call" enable-background="new 0 0 479.37 479.37" xmlns="http://www.w3.org/2000/svg" viewBox="0 0 479.37 479.37">
    <g>
      <path d="m427.975 43.48c-55.761-55.782-147.479-59.848-208.02-.8-66.272 64.637-57.661 169.289 12.89 223.41-2.75 4.76-6.05 9.18-9.85 13.2-10.586 11.185-2.889 29.793 12.93 29.74 17.74-.06 34.83-6.27 48.59-17.41 96.04 25.8 187.316-49.648 186.9-143.92-.17-39.36-15.6-76.38-43.44-104.22zm-113.71 173.55v-4c0-4.42 3.58-8 8-8s8 3.58 8 8v4c0 4.42-3.58 8-8 8s-8-3.58-8-8zm28.27-52.91c-7.27 3.83-11.79 11.11-11.79 18.99 0 4.42-3.58 8-8 8s-8-3.58-8-8c0-13.83 7.79-26.53 20.33-33.14 9.28-4.9 14.81-14.85 14.09-25.35-.9-13.08-11.45-23.62-24.53-24.52-15.447-1.078-28.38 11.089-28.38 26.42 0 4.42-3.58 8-8 8s-8-3.58-8-8c0-24.06 20.268-44.124 45.48-42.39 21.01 1.45 37.94 18.38 39.39 39.39 1.16 16.82-7.71 32.75-22.59 40.6z"></path>
      <path d="m149.135 240.17c-2.22 2.241-5.954 1.824-7.663-.828-23.811-36.952-54.781-67.305-90.068-89.956-2.588-1.661-3.196-5.385-.68-7.827 12.423-12.056 31.25-14.67 45.82-6.33 24.57 14.04 44.96 34.43 58.98 58.95 8.046 14.079 6.683 32.799-6.389 45.991z"></path>
      <path d="m322.539 456.083c-147.005 99.787-391.048-144.451-291.302-291.401 2.427-3.575 7.274-4.542 10.922-2.226 41.53 26.361 63.962 53.701 88.332 89.841 1.58 2.343 1.799 5.336.606 7.898-21.417 45.986 50.246 117.441 96.099 95.933 2.445-1.147 5.297-.994 7.597.423 13.304 8.195 56.302 35.572 90.008 88.664 2.303 3.627 1.293 8.455-2.262 10.868z"></path>
      <path d="m345.725 436.56c-2.543 2.611-6.241 1.921-7.877-.638-23.286-36.419-54.555-67.415-89.942-90.063-2.503-1.602-3.24-5.259-.771-7.728 12.26-12.26 31.13-14.85 45.97-6.37 24.52 14.02 44.9 34.41 58.95 58.98 8.362 14.62 5.703 33.46-6.33 45.819z"></path>
    </g>
  </symbol>
  <symbol version="1.1" id="maps-and-flags" xmlns="http://www.w3.org/2000/svg" xmlns:xlink="http://www.w3.org/1999/xlink" x="0px" y="0px" xml:space="preserve" viewBox="0 0 512 512">
    <g>
      <g>
        <path d="M256,0C153.755,0,70.573,83.182,70.573,185.426c0,126.888,165.939,313.167,173.004,321.035
			c6.636,7.391,18.222,7.378,24.846,0c7.065-7.868,173.004-194.147,173.004-321.035C441.425,83.182,358.244,0,256,0z M256,278.719
			c-51.442,0-93.292-41.851-93.292-93.293S204.559,92.134,256,92.134s93.291,41.851,93.291,93.293S307.441,278.719,256,278.719z"></path>
      </g>
    </g>
    <g></g>
    <g></g>
    <g></g>
    <g></g>
    <g></g>
    <g></g>
    <g></g>
    <g></g>
    <g></g>
    <g></g>
    <g></g>
    <g></g>
    <g></g>
    <g></g>
    <g></g>
  </symbol>
</svg>