<svg width="0" height="0" class="hidden">
  <symbol xmlns="http://www.w3.org/2000/svg" viewBox="0 0 64 64" id="justice">
    <path d="M40.533 36h18.934L50 14.483 40.533 36z"></path>
    <circle cx="32" cy="6" r="2"></circle>
    <path d="M4.533 36h18.934L14 14.483 4.533 36zM40.1 38a5.008 5.008 0 004.9 4h10a5.008 5.008 0 004.9-4zM9 42h10a5.008 5.008 0 004.9-4H4.1A5.008 5.008 0 009 42zm33 14H22a5.008 5.008 0 00-4.9 4h29.8a5.008 5.008 0 00-4.9-4z"></path>
    <path d="M42.447 9.605A15.3 15.3 0 0035.646 8h-7.729a15.143 15.143 0 00-5.992 1.229l-1.638.7A13.148 13.148 0 0115.083 11H14v2h1.083a15.143 15.143 0 005.992-1.229l1.638-.7A13.148 13.148 0 0127.917 10h2.962l-1.837 44h5.916l-1.837-44h2.525a13.264 13.264 0 015.907 1.4 15.3 15.3 0 006.801 1.6H50v-2h-1.646a13.264 13.264 0 01-5.907-1.395z"></path>
  </symbol>
  <symbol xmlns="http://www.w3.org/2000/svg" viewBox="0 0 512 512" id="lawya">
    <path d="M256 317.566l-1.792 7.262-13.944 56.491L256 447.321l15.736-66.002-13.943-56.491zm255.854 177.342L488.55 329.485c-4.979-35.344-31.896-63.501-66.98-70.067l-59.282-11.094a135.001 135.001 0 01-14.284 15.5 135.787 135.787 0 01-21.266 16.157l-10.637 44.615L271.42 512H497a15.001 15.001 0 0014.854-17.092zM185.262 279.981a135.843 135.843 0 01-21.263-16.155 134.89 134.89 0 01-14.287-15.503L90.43 259.418c-35.083 6.566-62.001 34.724-66.98 70.067L.147 494.908A15.001 15.001 0 0015 512h225.58L195.9 324.596z"></path>
    <path d="M361.375 164.594V150.5h-15c-25.124 0-46.114-10.503-60.701-30.374a84.165 84.165 0 01-2.292-3.282c-20.942 22.013-52.526 33.14-94.283 33.14h-38.474v14.609c0 30.484 13.016 57.98 33.776 77.238a105.758 105.758 0 0026.944 18.192l13.736 57.614 12.178-49.34c6.083 1.096 12.346 1.67 18.74 1.67s12.657-.574 18.74-1.67l12.178 49.34 13.736-57.614c9.921-4.661 19-10.823 26.946-18.194 20.761-19.257 33.776-46.753 33.776-77.235z"></path>
    <path d="M189.099 119.985c42.791 0 70.147-12.999 83.633-39.739a14.999 14.999 0 0128.024 3.449c.002.008 2.44 9.943 9.653 19.418 8.908 11.7 20.672 17.388 35.965 17.388h15v-15.125C361.375 47.271 314.104 0 256 0S150.625 47.271 150.625 105.375v14.609h38.474z"></path>
  </symbol>
  <symbol xmlns="http://www.w3.org/2000/svg" viewBox="0 0 512.133 512.133" id="rating">
    <path d="M341.066 412.777l-42.643 41.279L308.431 512l-52.365-27.339L203.702 512l10.007-57.944-42.643-41.279 58.906-8.5 26.094-52.506 26.094 52.506 58.906 8.5zm171 .133l-58.906-8.5-26.094-52.506-26.094 52.506-58.906 8.5 42.643 41.279-10.007 57.944 52.365-27.339 52.365 27.339-10.007-57.944 42.641-41.279zm-400.905-9.077L85.066 351.29l-26.094 52.543-58.906 8.506 42.643 41.307-10.007 57.985 52.365-27.358 52.365 27.358-10.007-57.985 42.643-41.307-58.907-8.506zm3.52-76.369l-38.478-10.931c10.955-38.563 34.597-73.301 66.572-97.814 13.03-9.989 27.07-18.112 41.854-24.299-24.163-20.194-39.563-50.541-39.563-84.421 0-60.654 49.346-110 110-110s110 49.346 110 110c0 33.268-14.847 63.131-38.26 83.319 15.603 6.242 30.407 14.623 44.101 25.056 31.877 24.286 55.565 58.749 66.701 97.039l-38.409 11.17C380.948 263.829 322.501 220 257.066 220c-65.86 0-124.411 44.19-142.385 107.464zM185.066 110c0 38.598 31.402 70 70 70s70-31.402 70-70-31.402-70-70-70-70 31.402-70 70z"></path>
  </symbol>
  <symbol xmlns="http://www.w3.org/2000/svg" viewBox="0 0 24 24" id="iconmonstr-check-mark-14">
    <path d="M21.856 10.303c.086.554.144 1.118.144 1.697 0 6.075-4.925 11-11 11S0 18.075 0 12 4.925 1 11 1c2.347 0 4.518.741 6.304 1.993L15.882 4.45A8.944 8.944 0 0011 3c-4.962 0-9 4.038-9 9s4.038 9 9 9c4.894 0 8.879-3.928 8.99-8.795l1.866-1.902zm-.952-8.136L11.5 11.806 7.657 8.192 4.562 11.29 11.5 18 24 5.263l-3.096-3.096z"></path>
  </symbol>
  <symbol id="1181187_app_call_viber_icon" version="1.1" xml:space="preserve" xmlns="http://www.w3.org/2000/svg" xmlns:xlink="http://www.w3.org/1999/xlink" viewBox="0 0 56.7 56.7">
    <g transform="translate(0.000000,950.000000) scale(0.100000,-0.100000)">
      <path d="M113.3835,9464.4268c-9.5542-1.0557-20.323-4.4873-29.771-9.3965c-22.2234-11.7178-38.7445-34.5215-43.126-59.6475   c-0.9507-5.3311-1.0033-12.5098-1.0033-178.415v-172.873l1.2147-5.3838c7.601-34.3633,31.8819-58.6455,66.2458-66.2461   l5.384-1.2139h173.6645h173.6653l5.384,1.2139c34.363,7.6006,58.6448,31.8828,66.2458,66.2461l1.2138,5.3838v172.873   c0,165.9053-0.0526,173.084-1.0023,178.415c-1.32,7.707-3.9588,15.4668-7.9713,23.4893   c-12.5096,25.1797-37.636,42.5986-65.823,45.6602C451.2644,9465.2188,119.6121,9465.165,113.3835,9464.4268z M301.986,9376.6436   c18.1584-2.2695,32.8326-6.6504,48.9327-14.5156c15.8352-7.7598,25.9698-15.0967,39.3776-28.4512   c12.5631-12.6162,19.531-22.1699,26.9207-37.0029c10.2935-20.6924,16.1528-45.29,17.1552-72.3691   c0.3701-9.2363,0.1062-11.2959-2.0058-13.9346c-4.0114-5.1211-12.8272-4.2754-15.8353,1.4775   c-0.9507,1.9004-1.2147,3.5361-1.5313,10.9268c-0.528,11.3486-1.319,18.6855-2.9029,27.4482   c-6.2285,34.3633-22.6979,61.8115-48.9854,81.501c-21.9058,16.4688-44.5511,24.4932-74.2159,26.2344   c-10.0295,0.5811-11.7713,0.9502-14.0409,2.6924c-4.2238,3.3252-4.4341,11.1367-0.3701,14.7793   c2.4811,2.2705,4.2228,2.5869,12.8272,2.3232C291.7987,9377.5947,298.3965,9377.0664,301.986,9376.6436z M181.3184,9370.9434   c1.8479-0.6338,4.6982-2.1113,6.3347-3.167c10.0286-6.6514,37.9525-42.3867,47.0849-60.2285   c5.2252-10.1875,6.9669-17.7363,5.3314-23.3311c-1.6901-6.0176-4.4868-9.1855-16.9973-19.2676   c-5.0147-4.0635-9.7129-8.2334-10.4513-9.3428c-1.9005-2.7451-3.4318-8.1289-3.4318-11.9297   c0.0536-8.8145,5.7541-24.8086,13.2499-37.1084c5.8057-9.5537,16.2044-21.7998,26.4979-31.1953   c12.0878-11.0859,22.7505-18.6338,34.7857-24.5986c15.466-7.7061,24.915-9.6592,31.8302-6.4404   c1.7417,0.792,3.5887,1.8486,4.1701,2.3223c0.527,0.4756,4.592,5.4375,9.0262,10.9268   c8.5508,10.7695,10.5039,12.5107,16.3632,14.5166c7.4432,2.5332,15.0442,1.8477,22.6978-2.0586   c5.8067-3.0088,18.4751-10.874,26.6567-16.5742c10.7679-7.5488,33.7823-26.3408,36.8976-30.0889   c5.4892-6.7559,6.4399-15.4121,2.7441-24.9678c-3.9062-10.0811-19.1083-28.9785-29.7184-37.0547   c-9.6067-7.2852-16.4158-10.0811-25.3894-10.5039c-7.3896-0.3691-10.4513,0.2637-19.9003,4.1699   c-74.1107,30.5625-133.2834,76.1689-180.263,138.8262c-24.5448,32.7266-43.2312,66.668-56.0058,101.876   c-7.4422,20.5332-7.8115,29.4541-1.6891,39.959c2.6398,4.4336,13.8831,15.4131,22.0647,21.5361   c13.6191,10.1348,19.9003,13.8828,24.915,14.9385C171.5529,9372.8965,177.5173,9372.3154,181.3184,9370.9434z M305.6283,9338.374   c32.0415-4.6973,56.8503-19.583,73.1082-43.7588c9.1323-13.6182,14.8329-29.6123,16.786-46.7676   c0.6858-6.2822,0.6858-17.7363-0.0526-19.6367c-0.6868-1.7949-2.9038-4.2227-4.8044-5.2256   c-2.0584-1.0557-6.4389-0.9502-8.8674,0.3164c-4.065,2.0586-5.2787,5.332-5.2787,14.1992c0,13.6719-3.537,28.082-9.6593,39.2725   c-6.9679,12.7744-17.1024,23.3311-29.4542,30.6689c-10.61,6.334-26.2874,11.0322-40.5924,12.1934   c-5.1735,0.4229-8.0238,1.4775-9.9769,3.748c-3.0081,3.4307-3.3256,8.0762-0.792,11.9287   C288.7897,9339.5889,293.0125,9340.2754,305.6283,9338.374z M316.8716,9298.5215c10.3987-2.2168,18.3699-6.1758,25.179-12.5635   c8.7622-8.2861,13.5664-18.3164,15.6773-32.7266c1.4252-9.3955,0.8446-13.0908-2.4811-16.1523   c-3.1141-2.8506-8.8672-2.9561-12.3517-0.2637c-2.5337,1.9004-3.3257,3.9062-3.9062,9.3428   c-0.6858,7.2314-1.953,12.2988-4.1166,16.9971c-4.6456,9.9766-12.8272,15.1494-26.6567,16.8389   c-6.4935,0.792-8.4465,1.5303-10.5575,4.0107c-3.8536,4.5928-2.3759,12.0361,2.9555,14.7803   c2.0067,1.0029,2.8512,1.1094,7.2845,0.8447C310.643,9299.4717,314.708,9298.9971,316.8716,9298.5215z"></path>
    </g>
  </symbol>
  <symbol version="1.1" id="telephone" xmlns="http://www.w3.org/2000/svg" xmlns:xlink="http://www.w3.org/1999/xlink" x="0px" y="0px" xml:space="preserve" viewBox="0 0 480.56 480.56">
    <g>
      <g>
        <path d="M365.354,317.9c-15.7-15.5-35.3-15.5-50.9,0c-11.9,11.8-23.8,23.6-35.5,35.6c-3.2,3.3-5.9,4-9.8,1.8
			c-7.7-4.2-15.9-7.6-23.3-12.2c-34.5-21.7-63.4-49.6-89-81c-12.7-15.6-24-32.3-31.9-51.1c-1.6-3.8-1.3-6.3,1.8-9.4
			c11.9-11.5,23.5-23.3,35.2-35.1c16.3-16.4,16.3-35.6-0.1-52.1c-9.3-9.4-18.6-18.6-27.9-28c-9.6-9.6-19.1-19.3-28.8-28.8
			c-15.7-15.3-35.3-15.3-50.9,0.1c-12,11.8-23.5,23.9-35.7,35.5c-11.3,10.7-17,23.8-18.2,39.1c-1.9,24.9,4.2,48.4,12.8,71.3
			c17.6,47.4,44.4,89.5,76.9,128.1c43.9,52.2,96.3,93.5,157.6,123.3c27.6,13.4,56.2,23.7,87.3,25.4c21.4,1.2,40-4.2,54.9-20.9
			c10.2-11.4,21.7-21.8,32.5-32.7c16-16.2,16.1-35.8,0.2-51.8C403.554,355.9,384.454,336.9,365.354,317.9z"></path>
        <path d="M346.254,238.2l36.9-6.3c-5.8-33.9-21.8-64.6-46.1-89c-25.7-25.7-58.2-41.9-94-46.9l-5.2,37.1
			c27.7,3.9,52.9,16.4,72.8,36.3C329.454,188.2,341.754,212,346.254,238.2z"></path>
        <path d="M403.954,77.8c-42.6-42.6-96.5-69.5-156-77.8l-5.2,37.1c51.4,7.2,98,30.5,134.8,67.2c34.9,34.9,57.8,79,66.1,127.5
			l36.9-6.3C470.854,169.3,444.354,118.3,403.954,77.8z"></path>
      </g>
    </g>
    <g></g>
    <g></g>
    <g></g>
    <g></g>
    <g></g>
    <g></g>
    <g></g>
    <g></g>
    <g></g>
    <g></g>
    <g></g>
    <g></g>
    <g></g>
    <g></g>
    <g></g>
  </symbol>
</svg>